<svg width="24" height="21" viewBox="0 0 24 21" fill="none" xmlns="http://www.w3.org/2000/svg">
<path fill-rule="evenodd" clip-rule="evenodd" d="M24 3.40997C20.4053 5.18071 18.608 7.2613 18.608 9.6518C20.1402 9.82888 21.4071 10.456 22.4089 11.5332C23.4107 12.6104 23.9116 13.8573 23.9116 15.2739C23.9116 16.779 23.4255 18.048 22.4531 19.0809C21.4808 20.1139 20.258 20.6303 18.7848 20.6303C17.1348 20.6303 15.7058 19.9589 14.4978 18.6161C13.2897 17.2733 12.6857 15.6428 12.6857 13.7245C12.6857 7.96958 15.8973 3.46901 22.3205 0.222656L24 3.40997ZM11.3143 3.40997C7.69016 5.18071 5.87812 7.2613 5.87812 9.6518C7.43974 9.82888 8.72142 10.456 9.72321 11.5332C10.725 12.6104 11.2259 13.8573 11.2259 15.2739C11.2259 16.779 10.7324 18.048 9.74531 19.0809C8.75825 20.1139 7.52813 20.6303 6.05491 20.6303C4.4049 20.6303 2.98326 19.9589 1.78996 18.6161C0.596646 17.2733 0 15.6428 0 13.7245C0 7.96958 3.19684 3.46901 9.59062 0.222656L11.3143 3.40997Z" fill="#1F2937"/>
</svg>
